<svg id="visual" viewBox="0 0 900 600" width="900" height="600" xmlns="http://www.w3.org/2000/svg" xmlns:xlink="http://www.w3.org/1999/xlink" version="1.1"><rect x="0" y="0" width="900" height="600" fill="#e6ffb1"></rect><defs><linearGradient id="grad1_0" x1="33.3%" y1="100%" x2="100%" y2="0%"><stop offset="20%" stop-color="#e6ffb1" stop-opacity="1"></stop><stop offset="80%" stop-color="#e6ffb1" stop-opacity="1"></stop></linearGradient></defs><defs><linearGradient id="grad2_0" x1="0%" y1="100%" x2="66.7%" y2="0%"><stop offset="20%" stop-color="#e6ffb1" stop-opacity="1"></stop><stop offset="80%" stop-color="#e6ffb1" stop-opacity="1"></stop></linearGradient></defs><g transform="translate(900, 600)"><path d="M-486.7 0C-470.2 -48.4 -453.6 -96.9 -435.6 -141.5C-417.5 -186.2 -398 -227 -375.4 -272.7C-352.7 -318.4 -326.9 -369 -286.1 -393.8C-245.3 -418.6 -189.5 -417.7 -139.4 -428.9C-89.2 -440.1 -44.6 -463.4 0 -486.7L0 0Z" fill="#52844d"></path></g><g transform="translate(0, 0)"><path d="M486.7 0C476.1 52.2 465.5 104.3 439.4 142.8C413.2 181.2 371.5 205.9 348.7 253.3C325.8 300.7 321.8 370.8 286.1 393.8C250.4 416.8 183.1 392.7 130.1 400.4C77.1 408 38.6 447.4 0 486.7L0 0Z" fill="#52844d"></path></g></svg>