<svg id="visual" viewBox="0 0 960 540" width="960" height="540" xmlns="http://www.w3.org/2000/svg" xmlns:xlink="http://www.w3.org/1999/xlink" version="1.1"><rect x="0" y="0" width="960" height="540" fill="#001220"></rect><defs><linearGradient id="grad1_0" x1="43.8%" y1="0%" x2="100%" y2="100%"><stop offset="14.444444444444446%" stop-color="#001220" stop-opacity="1"></stop><stop offset="85.55555555555554%" stop-color="#001220" stop-opacity="1"></stop></linearGradient></defs><defs><linearGradient id="grad2_0" x1="0%" y1="0%" x2="56.3%" y2="100%"><stop offset="14.444444444444446%" stop-color="#001220" stop-opacity="1"></stop><stop offset="85.55555555555554%" stop-color="#001220" stop-opacity="1"></stop></linearGradient></defs><g transform="translate(960, 0)"><path d="M0 378C-37.4 343.9 -74.8 309.8 -122.8 296.6C-170.9 283.3 -229.7 290.9 -267.3 267.3C-304.9 243.7 -321.4 189 -336.3 139.3C-351.2 89.6 -364.6 44.8 -378 0L0 0Z" fill="#21ad16"></path></g><g transform="translate(0, 540)"><path d="M0 -378C39.1 -347.9 78.2 -317.8 125.9 -304C173.6 -290.1 230 -292.5 267.3 -267.3C304.6 -242.1 322.9 -189.2 338.1 -140.1C353.4 -90.9 365.7 -45.5 378 0L0 0Z" fill="#21ad16"></path></g></svg>