<svg id="visual" viewBox="0 0 900 600" width="900" height="600" xmlns="http://www.w3.org/2000/svg" xmlns:xlink="http://www.w3.org/1999/xlink" version="1.1"><rect x="0" y="0" width="900" height="600" fill="#27322c"></rect><g transform="translate(-78.05905017648601 58.07347873441705)"><path id="intro-wave" d="M240 -437.6C286.1 -389.2 281.2 -274.3 332.7 -190.3C384.2 -106.3 492.1 -53.2 526.7 20C561.4 93.2 522.7 186.3 423.7 188.1C324.7 189.8 165.4 100.1 84.7 122.8C4 145.6 2 280.8 -26.7 327.1C-55.5 373.5 -111 330.9 -194.4 309.8C-277.9 288.6 -389.2 288.8 -382.8 240.7C-376.4 192.7 -252.2 96.3 -216.5 20.6C-180.9 -55.2 -233.8 -110.3 -212.4 -110.3C-191.1 -110.3 -95.6 -55.2 -47.8 -102.6C0 -150 0 -300 48.5 -384C97 -468 194 -486 240 -437.6" fill="#def0a2"></path></g></svg>