<svg id="visual" viewBox="0 0 900 600" width="900" height="600" xmlns="http://www.w3.org/2000/svg" xmlns:xlink="http://www.w3.org/1999/xlink" version="1.1"><rect x="0" y="0" width="900" height="600" fill="#174a2c"></rect><defs><linearGradient id="grad1_0" x1="33.3%" y1="0%" x2="100%" y2="100%"><stop offset="20%" stop-color="#174a2c" stop-opacity="1"></stop><stop offset="80%" stop-color="#174a2c" stop-opacity="1"></stop></linearGradient></defs><defs><linearGradient id="grad2_0" x1="0%" y1="0%" x2="66.7%" y2="100%"><stop offset="20%" stop-color="#174a2c" stop-opacity="1"></stop><stop offset="80%" stop-color="#174a2c" stop-opacity="1"></stop></linearGradient></defs><g transform="translate(900, 0)"><path d="M0 378.6C-54.1 377.6 -108.2 376.6 -144.9 349.8C-181.6 323 -200.8 270.4 -234.1 234.1C-267.3 197.7 -314.5 177.5 -340.9 141.2C-367.3 104.9 -373 52.5 -378.6 0L0 0Z" fill="#e4ecca"></path></g><g transform="translate(0, 600)"><path d="M0 -378.6C43.9 -350.2 87.8 -321.9 122.5 -295.6C157.1 -269.4 182.4 -245.4 223.4 -223.4C264.5 -201.5 321.3 -181.8 349.8 -144.9C378.2 -108 378.4 -54 378.6 0L0 0Z" fill="#e4ecca"></path></g></svg>