<svg id="visual" viewBox="0 0 900 600" width="900" height="600" xmlns="http://www.w3.org/2000/svg" xmlns:xlink="http://www.w3.org/1999/xlink" version="1.1"><rect x="0" y="0" width="900" height="600" fill="#001220"></rect><defs><linearGradient id="grad1_0" x1="33.3%" y1="100%" x2="100%" y2="0%"><stop offset="20%" stop-color="#001220" stop-opacity="1"></stop><stop offset="80%" stop-color="#001220" stop-opacity="1"></stop></linearGradient></defs><defs><linearGradient id="grad2_0" x1="0%" y1="100%" x2="66.7%" y2="0%"><stop offset="20%" stop-color="#001220" stop-opacity="1"></stop><stop offset="80%" stop-color="#001220" stop-opacity="1"></stop></linearGradient></defs><g transform="translate(900, 600)"><path d="M-324.5 0C-307.6 -31.1 -290.7 -62.1 -275.8 -89.6C-260.9 -117.1 -248 -141 -236.2 -171.6C-224.5 -202.3 -213.9 -239.7 -190.7 -262.5C-167.6 -285.4 -131.8 -293.6 -98 -301.5C-64.1 -309.4 -32 -316.9 0 -324.5L0 0Z" fill="#7dca96"></path></g><g transform="translate(0, 0)"><path d="M324.5 0C292.1 25.6 259.6 51.1 247.3 80.3C234.9 109.6 242.6 142.4 234.6 170.5C226.6 198.5 202.8 221.7 178.7 245.9C154.6 270.2 130.1 295.4 100.3 308.6C70.4 321.9 35.2 323.2 0 324.5L0 0Z" fill="#7dca96"></path></g></svg>