<svg id="visual" viewBox="0 0 900 600" width="900" height="600" xmlns="http://www.w3.org/2000/svg" xmlns:xlink="http://www.w3.org/1999/xlink" version="1.1"><rect x="0" y="0" width="900" height="600" fill="#e4ecca"></rect><path d="M0 179L16.7 178.5C33.3 178 66.7 177 100 178.5C133.3 180 166.7 184 200 178.7C233.3 173.3 266.7 158.7 300 148.7C333.3 138.7 366.7 133.3 400 138.5C433.3 143.7 466.7 159.3 500 168.8C533.3 178.3 566.7 181.7 600 173.8C633.3 166 666.7 147 700 147C733.3 147 766.7 166 800 175.8C833.3 185.7 866.7 186.3 883.3 186.7L900 187L900 0L883.3 0C866.7 0 833.3 0 800 0C766.7 0 733.3 0 700 0C666.7 0 633.3 0 600 0C566.7 0 533.3 0 500 0C466.7 0 433.3 0 400 0C366.7 0 333.3 0 300 0C266.7 0 233.3 0 200 0C166.7 0 133.3 0 100 0C66.7 0 33.3 0 16.7 0L0 0Z" fill="#629858"></path><path d="M0 106L16.7 103.7C33.3 101.3 66.7 96.7 100 94.5C133.3 92.3 166.7 92.7 200 100.5C233.3 108.3 266.7 123.7 300 128C333.3 132.3 366.7 125.7 400 126.8C433.3 128 466.7 137 500 132.3C533.3 127.7 566.7 109.3 600 104.5C633.3 99.7 666.7 108.3 700 108.7C733.3 109 766.7 101 800 104C833.3 107 866.7 121 883.3 128L900 135L900 0L883.3 0C866.7 0 833.3 0 800 0C766.7 0 733.3 0 700 0C666.7 0 633.3 0 600 0C566.7 0 533.3 0 500 0C466.7 0 433.3 0 400 0C366.7 0 333.3 0 300 0C266.7 0 233.3 0 200 0C166.7 0 133.3 0 100 0C66.7 0 33.3 0 16.7 0L0 0Z" fill="#47754d"></path><path d="M0 64L16.7 69C33.3 74 66.7 84 100 86.5C133.3 89 166.7 84 200 81.5C233.3 79 266.7 79 300 80.8C333.3 82.7 366.7 86.3 400 90.2C433.3 94 466.7 98 500 96.8C533.3 95.7 566.7 89.3 600 85.5C633.3 81.7 666.7 80.3 700 79.2C733.3 78 766.7 77 800 73.8C833.3 70.7 866.7 65.3 883.3 62.7L900 60L900 0L883.3 0C866.7 0 833.3 0 800 0C766.7 0 733.3 0 700 0C666.7 0 633.3 0 600 0C566.7 0 533.3 0 500 0C466.7 0 433.3 0 400 0C366.7 0 333.3 0 300 0C266.7 0 233.3 0 200 0C166.7 0 133.3 0 100 0C66.7 0 33.3 0 16.7 0L0 0Z" fill="#34533e"></path><path d="M0 64L16.7 61C33.3 58 66.7 52 100 48.7C133.3 45.3 166.7 44.7 200 44.8C233.3 45 266.7 46 300 48.5C333.3 51 366.7 55 400 52.8C433.3 50.7 466.7 42.3 500 42.2C533.3 42 566.7 50 600 49.2C633.3 48.3 666.7 38.7 700 34.3C733.3 30 766.7 31 800 33.7C833.3 36.3 866.7 40.7 883.3 42.8L900 45L900 0L883.3 0C866.7 0 833.3 0 800 0C766.7 0 733.3 0 700 0C666.7 0 633.3 0 600 0C566.7 0 533.3 0 500 0C466.7 0 433.3 0 400 0C366.7 0 333.3 0 300 0C266.7 0 233.3 0 200 0C166.7 0 133.3 0 100 0C66.7 0 33.3 0 16.7 0L0 0Z" fill="#27322c"></path></svg>