<svg id="visual" viewBox="0 0 900 600" width="900" height="600" xmlns="http://www.w3.org/2000/svg" xmlns:xlink="http://www.w3.org/1999/xlink" version="1.1"><path d="M0 169L13.7 173C27.3 177 54.7 185 82 188C109.3 191 136.7 189 163.8 205C191 221 218 255 245.2 245C272.3 235 299.7 181 327 173C354.3 165 381.7 203 409 222C436.3 241 463.7 241 491 222C518.3 203 545.7 165 573 143C600.3 121 627.7 115 654.8 127C682 139 709 169 736.2 181C763.3 193 790.7 187 818 180C845.3 173 872.7 165 886.3 161L900 157L900 0L886.3 0C872.7 0 845.3 0 818 0C790.7 0 763.3 0 736.2 0C709 0 682 0 654.8 0C627.7 0 600.3 0 573 0C545.7 0 518.3 0 491 0C463.7 0 436.3 0 409 0C381.7 0 354.3 0 327 0C299.7 0 272.3 0 245.2 0C218 0 191 0 163.8 0C136.7 0 109.3 0 82 0C54.7 0 27.3 0 13.7 0L0 0Z" fill="#e4ecca"></path><path d="M0 259L13.7 260C27.3 261 54.7 263 82 265C109.3 267 136.7 269 163.8 279C191 289 218 307 245.2 292C272.3 277 299.7 229 327 223C354.3 217 381.7 253 409 278C436.3 303 463.7 317 491 306C518.3 295 545.7 259 573 234C600.3 209 627.7 195 654.8 197C682 199 709 217 736.2 223C763.3 229 790.7 223 818 222C845.3 221 872.7 225 886.3 227L900 229L900 155L886.3 159C872.7 163 845.3 171 818 178C790.7 185 763.3 191 736.2 179C709 167 682 137 654.8 125C627.7 113 600.3 119 573 141C545.7 163 518.3 201 491 220C463.7 239 436.3 239 409 220C381.7 201 354.3 163 327 171C299.7 179 272.3 233 245.2 243C218 253 191 219 163.8 203C136.7 187 109.3 189 82 186C54.7 183 27.3 175 13.7 171L0 167Z" fill="#d1ddba"></path><path d="M0 361L13.7 366C27.3 371 54.7 381 82 387C109.3 393 136.7 395 163.8 403C191 411 218 425 245.2 427C272.3 429 299.7 419 327 413C354.3 407 381.7 405 409 411C436.3 417 463.7 431 491 427C518.3 423 545.7 401 573 389C600.3 377 627.7 375 654.8 385C682 395 709 417 736.2 426C763.3 435 790.7 431 818 426C845.3 421 872.7 415 886.3 412L900 409L900 227L886.3 225C872.7 223 845.3 219 818 220C790.7 221 763.3 227 736.2 221C709 215 682 197 654.8 195C627.7 193 600.3 207 573 232C545.7 257 518.3 293 491 304C463.7 315 436.3 301 409 276C381.7 251 354.3 215 327 221C299.7 227 272.3 275 245.2 290C218 305 191 287 163.8 277C136.7 267 109.3 265 82 263C54.7 261 27.3 259 13.7 258L0 257Z" fill="#c5d4b1"></path><path d="M0 493L13.7 494C27.3 495 54.7 497 82 495C109.3 493 136.7 487 163.8 492C191 497 218 513 245.2 518C272.3 523 299.7 517 327 507C354.3 497 381.7 483 409 482C436.3 481 463.7 493 491 503C518.3 513 545.7 521 573 516C600.3 511 627.7 493 654.8 497C682 501 709 527 736.2 531C763.3 535 790.7 517 818 514C845.3 511 872.7 523 886.3 529L900 535L900 407L886.3 410C872.7 413 845.3 419 818 424C790.7 429 763.3 433 736.2 424C709 415 682 393 654.8 383C627.7 373 600.3 375 573 387C545.7 399 518.3 421 491 425C463.7 429 436.3 415 409 409C381.7 403 354.3 405 327 411C299.7 417 272.3 427 245.2 425C218 423 191 409 163.8 401C136.7 393 109.3 391 82 385C54.7 379 27.3 369 13.7 364L0 359Z" fill="#d1ddba"></path><path d="M0 601L13.7 601C27.3 601 54.7 601 82 601C109.3 601 136.7 601 163.8 601C191 601 218 601 245.2 601C272.3 601 299.7 601 327 601C354.3 601 381.7 601 409 601C436.3 601 463.7 601 491 601C518.3 601 545.7 601 573 601C600.3 601 627.7 601 654.8 601C682 601 709 601 736.2 601C763.3 601 790.7 601 818 601C845.3 601 872.7 601 886.3 601L900 601L900 533L886.3 527C872.7 521 845.3 509 818 512C790.7 515 763.3 533 736.2 529C709 525 682 499 654.8 495C627.7 491 600.3 509 573 514C545.7 519 518.3 511 491 501C463.7 491 436.3 479 409 480C381.7 481 354.3 495 327 505C299.7 515 272.3 521 245.2 516C218 511 191 495 163.8 490C136.7 485 109.3 491 82 493C54.7 495 27.3 493 13.7 492L0 491Z" fill="#e4ecca"></path></svg>