<svg id="visual" viewBox="0 0 900 600" width="900" height="600" xmlns="http://www.w3.org/2000/svg" xmlns:xlink="http://www.w3.org/1999/xlink" version="1.1"><path d="M0 205L82 163L164 229L245 181L327 199L409 157L491 175L573 187L655 175L736 151L818 217L900 151L900 0L818 0L736 0L655 0L573 0L491 0L409 0L327 0L245 0L164 0L82 0L0 0Z" fill="#25c467"></path><path d="M0 271L82 253L164 295L245 235L327 277L409 229L491 247L573 271L655 247L736 193L818 289L900 241L900 149L818 215L736 149L655 173L573 185L491 173L409 155L327 197L245 179L164 227L82 161L0 203Z" fill="#00a164"></path><path d="M0 367L82 313L164 391L245 289L327 331L409 319L491 343L573 373L655 331L736 307L818 355L900 289L900 239L818 287L736 191L655 245L573 269L491 245L409 227L327 275L245 233L164 293L82 251L0 269Z" fill="#007e5a"></path><path d="M0 487L82 379L164 457L245 415L327 481L409 433L491 463L573 463L655 421L736 451L818 427L900 427L900 287L818 353L736 305L655 329L573 371L491 341L409 317L327 329L245 287L164 389L82 311L0 365Z" fill="#005d4a"></path><path d="M0 601L82 601L164 601L245 601L327 601L409 601L491 601L573 601L655 601L736 601L818 601L900 601L900 425L818 425L736 449L655 419L573 461L491 461L409 431L327 479L245 413L164 455L82 377L0 485Z" fill="#003d36"></path></svg>