<svg id="visual" viewBox="0 0 900 600" width="900" height="600" xmlns="http://www.w3.org/2000/svg" xmlns:xlink="http://www.w3.org/1999/xlink" version="1.1"><rect x="0" y="0" width="900" height="600" fill="#2a892a"></rect><path d="M549 600L554.3 585.7C559.7 571.3 570.3 542.7 558.2 514.2C546 485.7 511 457.3 529.5 428.8C548 400.3 620 371.7 651.3 343C682.7 314.3 673.3 285.7 668 257C662.7 228.3 661.3 199.7 663.5 171.2C665.7 142.7 671.3 114.3 636.7 85.8C602 57.3 527 28.7 489.5 14.3L452 0L900 0L900 14.3C900 28.7 900 57.3 900 85.8C900 114.3 900 142.7 900 171.2C900 199.7 900 228.3 900 257C900 285.7 900 314.3 900 343C900 371.7 900 400.3 900 428.8C900 457.3 900 485.7 900 514.2C900 542.7 900 571.3 900 585.7L900 600Z" fill="#efe385" stroke-linecap="round" stroke-linejoin="miter"></path></svg>