<svg id="visual" viewBox="0 0 900 600" width="900" height="600" xmlns="http://www.w3.org/2000/svg" xmlns:xlink="http://www.w3.org/1999/xlink" version="1.1"><rect x="0" y="0" width="900" height="600" fill="#dfffac"></rect><path d="M0 74L16.7 76C33.3 78 66.7 82 100 79.5C133.3 77 166.7 68 200 69.3C233.3 70.7 266.7 82.3 300 80.2C333.3 78 366.7 62 400 51.5C433.3 41 466.7 36 500 38.5C533.3 41 566.7 51 600 49.2C633.3 47.3 666.7 33.7 700 39.7C733.3 45.7 766.7 71.3 800 72.5C833.3 73.7 866.7 50.3 883.3 38.7L900 27L900 0L883.3 0C866.7 0 833.3 0 800 0C766.7 0 733.3 0 700 0C666.7 0 633.3 0 600 0C566.7 0 533.3 0 500 0C466.7 0 433.3 0 400 0C366.7 0 333.3 0 300 0C266.7 0 233.3 0 200 0C166.7 0 133.3 0 100 0C66.7 0 33.3 0 16.7 0L0 0Z" fill="#27322c" stroke-linecap="round" stroke-linejoin="miter"></path></svg>