<svg id="visual" viewBox="0 0 900 600" width="900" height="600" xmlns="http://www.w3.org/2000/svg" xmlns:xlink="http://www.w3.org/1999/xlink" version="1.1"><rect x="0" y="0" width="900" height="600" fill="#174a2c"></rect><path d="M0 142L11.5 139.5C23 137 46 132 69 129C92 126 115 125 138.2 117.2C161.3 109.3 184.7 94.7 207.8 97C231 99.3 254 118.7 277 124.8C300 131 323 124 346 116.7C369 109.3 392 101.7 415.2 91.5C438.3 81.3 461.7 68.7 484.8 63.3C508 58 531 60 554 66C577 72 600 82 623 85C646 88 669 84 692.2 82.7C715.3 81.3 738.7 82.7 761.8 89C785 95.3 808 106.7 831 112C854 117.3 877 116.7 888.5 116.3L900 116L900 0L888.5 0C877 0 854 0 831 0C808 0 785 0 761.8 0C738.7 0 715.3 0 692.2 0C669 0 646 0 623 0C600 0 577 0 554 0C531 0 508 0 484.8 0C461.7 0 438.3 0 415.2 0C392 0 369 0 346 0C323 0 300 0 277 0C254 0 231 0 207.8 0C184.7 0 161.3 0 138.2 0C115 0 92 0 69 0C46 0 23 0 11.5 0L0 0Z" fill="#d1ddba" stroke-linecap="round" stroke-linejoin="miter"></path></svg>